<svg width="54" height="47" viewBox="0 0 54 47" fill="none" xmlns="http://www.w3.org/2000/svg">
<path d="M15.2717 43.005C16.3748 43.005 17.269 43.8992 17.269 45.0024C17.269 46.1055 16.3748 46.9998 15.2717 46.9998H5.99194C2.68268 46.9998 0 44.317 0 41.0075C0 39.9472 0.281336 38.9059 0.81529 37.9899L21.8079 2.97525C23.4744 0.116137 27.1431 -0.850564 30.0021 0.81606C30.8951 1.33662 31.6382 2.07933 32.1593 2.97203L53.1819 37.9866C54.8502 40.8447 53.8858 44.5142 51.0279 46.1826C50.1111 46.7177 49.0686 46.9998 48.0071 46.9998H39.2424C38.1393 46.9998 37.2451 46.1055 37.2451 45.0024C37.2451 43.8992 38.1393 43.005 39.2424 43.005H48.0071C48.3609 43.005 48.7084 42.9109 49.014 42.7326C49.9667 42.1764 50.2881 40.9533 49.732 40.0006L28.7094 4.98597C28.5357 4.6884 28.288 4.44083 27.9904 4.26731C27.0374 3.71177 25.8145 4.034 25.259 4.98704L4.26639 40.0017C4.0884 40.307 3.99462 40.6541 3.99462 41.0075C3.99462 42.1107 4.88885 43.005 5.99194 43.005H15.2717Z" fill="#BFCAD4"/>
<path d="M25 18.0001C25 16.8955 25.8954 16.0001 27 16.0001C28.1046 16.0001 29 16.8955 29 18.0001V36.0001C29 37.1047 28.1046 38.0001 27 38.0001C25.8954 38.0001 25 37.1047 25 36.0001V18.0001Z" fill="#BFCAD4"/>
<path d="M29 45.0001C29 46.1046 28.1046 47.0001 27 47.0001C25.8954 47.0001 25 46.1046 25 45.0001C25 43.8955 25.8954 43.0001 27 43.0001C28.1046 43.0001 29 43.8955 29 45.0001Z" fill="#BFCAD4"/>
</svg>
