<svg width="40" height="40" viewBox="0 0 40 40" fill="none" xmlns="http://www.w3.org/2000/svg">
<path d="M0 4C0 1.79086 1.79086 0 4 0H36C38.2091 0 40 1.79086 40 4V36C40 38.2091 38.2091 40 36 40H4C1.79086 40 0 38.2091 0 36V4Z" fill="#EA1F49"/>
<path d="M30 11.1125C30 10.4981 29.5094 10 28.9041 10H11.0959C10.8703 10 10.6501 10.0708 10.4655 10.2026C9.97045 10.556 9.85143 11.25 10.1996 11.7526L16.6564 21.0719L16.6745 27.8518C16.6757 28.275 16.7996 28.6885 17.0308 29.0407C17.6808 30.0304 18.998 30.2979 19.9729 29.6381L22.279 28.0773C22.8918 27.6626 23.2585 26.9631 23.255 26.2155L23.2545 26.1681C23.2481 25.5653 22.756 25.0809 22.1532 25.0841C21.5504 25.0873 21.0634 25.5768 21.0634 26.1797V26.2258L18.866 27.713L18.8463 20.365L13.2066 12.225H26.7779L25.8078 13.6074C25.4583 14.1053 25.5787 14.7922 26.0766 15.1416C26.5745 15.491 27.2614 15.3707 27.6108 14.8728L29.7967 11.7581C29.929 11.5696 30 11.3439 30 11.1125Z" fill="white"/>
<path d="M23.2034 17.1978C22.8165 16.8108 22.1892 16.8108 21.8022 17.1978C21.4153 17.5847 21.4153 18.212 21.8022 18.5989L23.2034 20L21.8022 21.4011C21.4153 21.788 21.4153 22.4153 21.8022 22.8022C22.1892 23.1892 22.8165 23.1892 23.2034 22.8022L24.6045 21.4011L26.0056 22.8022C26.3925 23.1892 27.0198 23.1892 27.4067 22.8022C27.7936 22.4153 27.7936 21.788 27.4067 21.4011L26.0056 20L27.4067 18.5989C27.7936 18.212 27.7936 17.5847 27.4067 17.1978C27.0198 16.8108 26.3925 16.8108 26.0056 17.1978L24.6045 18.5989L23.2034 17.1978Z" fill="white"/>
</svg>
