<svg width="20" height="20" viewBox="0 0 20 20" fill="none" xmlns="http://www.w3.org/2000/svg">
<path d="M2 10C2 5.58172 5.58172 2 10 2C11.5285 2 12.9541 2.42769 14.167 3.16941C14.6381 3.45753 15.2537 3.30915 15.5418 2.83798C15.8299 2.36681 15.6815 1.75128 15.2104 1.46315C13.6923 0.534812 11.9071 0 10 0C4.47715 0 0 4.47715 0 10C0 15.5228 4.47715 20 10 20C15.5228 20 20 15.5228 20 10C20 8.09618 19.467 6.3138 18.5416 4.79737C18.2539 4.32594 17.6385 4.17699 17.1671 4.46469C16.6956 4.75239 16.5467 5.36779 16.8344 5.83922C17.5738 7.0508 18 8.47409 18 10C18 14.4183 14.4183 18 10 18C5.58172 18 2 14.4183 2 10Z" fill="#001A34"/>
<path d="M11 6C11 5.44772 10.5523 5 10 5C9.44771 5 9 5.44772 9 6V12H14C14.5523 12 15 11.5523 15 11C15 10.4477 14.5523 10 14 10H11V6Z" fill="#001A34"/>
</svg>
