<svg width="21" height="18" viewBox="0 0 21 18" fill="none" xmlns="http://www.w3.org/2000/svg">
<path d="M8 0H19C19.9971 0 21 0.902401 21 2.00534V15.9947C21 17.0976 19.9971 18 19 18H8C6.99385 18 6 17.0976 6 15.9947V13C6 12.4477 6.44772 12 7 12C7.55229 12 8 12.4477 8 13V15.9947H19V2.00534H8V5C8 5.55229 7.55229 6 7 6C6.44772 6 6 5.55229 6 5V2C6 0.897065 6.99385 0 8 0Z" fill="#005BFF"/>
<path d="M4.70711 6.70711L3.5 8H12C12.5523 8 13 8.44771 13 9C13 9.55229 12.5523 10 12 10H3.5L4.70711 11.2929C5.09763 11.6834 5.09763 12.3166 4.70711 12.7071C4.31658 13.0976 3.68342 13.0976 3.29289 12.7071L0 9L3.29289 5.29289C3.68342 4.90237 4.31658 4.90237 4.70711 5.29289C5.09763 5.68342 5.09763 6.31658 4.70711 6.70711Z" fill="#005BFF"/>
</svg>
